<svg xmlns="http://www.w3.org/2000/svg" viewBox="0 0 840 424"><defs><style>.cls-1,.cls-5,.cls-6{fill:none;stroke:#000;}.cls-1{stroke-linecap:round;stroke-linejoin:round;}.cls-1,.cls-5{stroke-width:3px;}.cls-2{font-size:18px;}.cls-2,.cls-7{font-family:MicrosoftJhengHeiUIRegular, Microsoft JhengHei UI;}.cls-3{letter-spacing:-0.02em;}.cls-4{letter-spacing:-0.01em;}.cls-5,.cls-6{stroke-miterlimit:10;}.cls-6{stroke-width:2px;}.cls-7{font-size:24px;}</style></defs><title>zoafndiau</title><g id="L1"><rect class="cls-1" x="177.5" y="114.5" width="84" height="64" rx="12"/><rect class="cls-1" x="177.5" y="206.5" width="84" height="64" rx="12"/><rect class="cls-1" x="295.5" y="214.5" width="84" height="64" rx="12"/><rect class="cls-1" x="59.5" y="214.5" width="84" height="64" rx="12"/><rect class="cls-1" x="177.5" y="315.5" width="84" height="64" rx="12"/><text class="cls-2" transform="translate(201.81 143.39)">上突<tspan x="8.97" y="21.6">or</tspan></text><text class="cls-2" transform="translate(201.81 235.39)">迴旋<tspan x="6.64" y="21.6">oo</tspan></text><text class="cls-2" transform="translate(201.81 342.39)">基調<tspan x="12.32" y="21.6">o</tspan></text><text class="cls-2" transform="translate(83.81 243.39)">高調<tspan class="cls-3" x="9.5" y="21.6">o</tspan><tspan x="20.5" y="21.6">f</tspan></text><text class="cls-2" transform="translate(319.81 243.39)">下突<tspan class="cls-4" x="8.04" y="21.6">o</tspan><tspan x="19.16" y="21.6">x</tspan></text><line class="cls-5" x1="338" y1="214" x2="276.21" y2="158.71"/><polygon points="262 146 289.34 155.73 277.27 159.66 274.7 172.09 262 146"/><line class="cls-5" x1="177" y1="148" x2="115.35" y2="201.95"/><polygon points="101 214.5 113.99 188.55 116.42 201.01 128.44 205.07 101 214.5"/><line class="cls-5" x1="261.5" y1="347.5" x2="323.39" y2="291.31"/><polygon points="337.5 278.5 324.99 304.68 322.33 292.27 310.24 288.43 337.5 278.5"/><line class="cls-5" x1="102" y1="278" x2="162.28" y2="331.81"/><polygon points="176.5 344.5 149.15 334.8 161.22 330.86 163.77 318.43 176.5 344.5"/><line class="cls-5" x1="219.5" y1="270.5" x2="219.5" y2="296.44"/><polygon points="219.5 315.5 208.52 288.64 219.5 295.01 230.47 288.64 219.5 315.5"/><rect class="cls-1" x="490.5" y="106.5" width="244" height="64" rx="12"/><text class="cls-2" transform="translate(582.09 132.39)">高促 ok</text><text class="cls-2" transform="translate(529.12 160.39)">p</text><text class="cls-2" transform="translate(583.21 160.39)">t</text><text class="cls-2" transform="translate(633.35 160.39)">k</text><text class="cls-2" transform="translate(684.33 160.39)">h</text><rect class="cls-1" x="490.5" y="315.5" width="244" height="64" rx="12"/><text class="cls-2" transform="translate(581.17 369.39)">低促 og</text><text class="cls-2" transform="translate(529.12 340.39)">b</text><text class="cls-2" transform="translate(580.77 340.39)">d</text><text class="cls-2" transform="translate(632.44 340.39)">g</text><text class="cls-2" transform="translate(684.1 340.39)">q</text><path class="cls-5" d="M490.5,345.5c-79.15,0-84.61-175.36-18.7-203.27"/><polygon points="490.5 138.5 466.72 155.13 470.52 143.02 461.88 133.72 490.5 138.5"/><path class="cls-5" d="M734.37,138.5c79.16,0,84.61,175.36,18.71,203.27"/><polygon points="734.38 345.5 758.15 328.87 754.36 340.98 763 350.28 734.38 345.5"/><line class="cls-6" x1="535" y1="171" x2="535" y2="315"/><line class="cls-6" x1="586" y1="171" x2="586" y2="315"/><line class="cls-6" x1="638" y1="171" x2="638" y2="315"/><line class="cls-6" x1="690" y1="171" x2="690" y2="315"/><text class="cls-7" transform="translate(359.92 53.79)">台語轉調圖</text></g></svg>