<svg xmlns="http://www.w3.org/2000/svg" viewBox="0 0 420 320"><defs><style>.a,.e{fill:none;stroke:#000;stroke-width:3px;}.a{stroke-linecap:round;stroke-linejoin:round;}.b{font-size:18px;font-family:MicrosoftJhengHeiUIRegular, Microsoft JhengHei UI;}.c{letter-spacing:-0.02em;}.d{letter-spacing:-0.01em;}.e{stroke-miterlimit:10;}</style></defs><title>zoafndiau1</title><rect class="a" x="168" y="27.5" width="84" height="64" rx="12"/><rect class="a" x="168" y="119.5" width="84" height="64" rx="12"/><rect class="a" x="286" y="127.5" width="84" height="64" rx="12"/><rect class="a" x="50" y="127.5" width="84" height="64" rx="12"/><rect class="a" x="168" y="228.5" width="84" height="64" rx="12"/><text class="b" transform="translate(192.31 56.39)">上突<tspan x="8.97" y="21.6">or</tspan></text><text class="b" transform="translate(192.31 148.39)">迴旋<tspan x="6.64" y="21.6">oo</tspan></text><text class="b" transform="translate(192.31 255.39)">基調<tspan x="12.32" y="21.6">o</tspan></text><text class="b" transform="translate(74.31 156.39)">高調<tspan class="c" x="9.5" y="21.6">o</tspan><tspan x="20.5" y="21.6">f</tspan></text><text class="b" transform="translate(310.31 156.39)">下突<tspan class="d" x="8.04" y="21.6">o</tspan><tspan x="19.16" y="21.6">x</tspan></text><line class="e" x1="328.5" y1="127" x2="266.71" y2="71.71"/><polygon points="252.5 59 279.84 68.73 267.77 72.66 265.2 85.09 252.5 59"/><line class="e" x1="167.5" y1="61" x2="105.85" y2="114.95"/><polygon points="91.5 127.5 104.49 101.55 106.92 114.01 118.94 118.07 91.5 127.5"/><line class="e" x1="252" y1="260.5" x2="313.89" y2="204.31"/><polygon points="328 191.5 315.49 217.68 312.83 205.27 300.74 201.43 328 191.5"/><line class="e" x1="92.5" y1="191" x2="152.78" y2="244.81"/><polygon points="167 257.5 139.65 247.8 151.72 243.86 154.27 231.43 167 257.5"/><line class="e" x1="210" y1="183.5" x2="210" y2="209.44"/><polygon points="210 228.5 199.02 201.64 210 208.01 220.97 201.64 210 228.5"/></svg>