<svg xmlns="http://www.w3.org/2000/svg" viewBox="0 0 420 320"><defs><style>.a,.c,.d{fill:none;stroke:#000;}.a{stroke-linecap:round;stroke-linejoin:round;}.a,.c{stroke-width:3px;}.b{font-size:18px;font-family:MicrosoftJhengHeiUIRegular, Microsoft JhengHei UI;}.c,.d{stroke-miterlimit:10;}.d{stroke-width:2px;}</style></defs><title>8Sounds</title><rect class="a" x="88.06" y="23.5" width="244" height="64" rx="12"/><text class="b" transform="translate(179.65 49.39)">高促 ok</text><text class="b" transform="translate(126.68 77.39)">p</text><text class="b" transform="translate(180.77 77.39)">t</text><text class="b" transform="translate(230.91 77.39)">k</text><text class="b" transform="translate(281.89 77.39)">h</text><rect class="a" x="88.06" y="232.5" width="244" height="64" rx="12"/><text class="b" transform="translate(178.74 286.39)">低促 og</text><text class="b" transform="translate(126.68 257.39)">b</text><text class="b" transform="translate(178.33 257.39)">d</text><text class="b" transform="translate(230 257.39)">g</text><text class="b" transform="translate(281.67 257.39)">q</text><path class="c" d="M88.06,262.5C8.91,262.5,3.45,87.14,69.36,59.23"/><polygon points="88.06 55.5 64.28 72.13 68.08 60.02 59.44 50.72 88.06 55.5"/><path class="c" d="M331.94,55.5c79.15,0,84.61,175.36,18.7,203.27"/><polygon points="331.94 262.5 355.72 245.87 351.92 257.98 360.56 267.28 331.94 262.5"/><line class="d" x1="132.56" y1="88" x2="132.56" y2="232"/><line class="d" x1="183.56" y1="88" x2="183.56" y2="232"/><line class="d" x1="235.56" y1="88" x2="235.56" y2="232"/><line class="d" x1="287.56" y1="88" x2="287.56" y2="232"/></svg>